<svg width="74" height="65" viewBox="0 0 74 65" fill="none" xmlns="http://www.w3.org/2000/svg">
<g clip-path="url(#clip0_182_4538)">
<rect x="4.53625" y="25.9276" width="59.2037" height="3.57068" transform="rotate(-15 4.53625 25.9276)" fill="#14489D"/>
<rect width="59.2037" height="7.7597" transform="matrix(0.965926 -0.258819 -0.258819 -0.965926 4.53625 25.9276)" fill="#F0F6FF"/>
<rect x="12.6411" y="31.8064" width="6.81443" height="3.57068" rx="1.78534" transform="rotate(-15 12.6411 31.8064)" fill="#14489D"/>
<rect x="15.5759" y="42.1484" width="44.961" height="3.57068" rx="1.78534" transform="rotate(-15 15.5759 42.1484)" fill="#14489D"/>
<rect x="17.3612" y="47.5582" width="44.961" height="3.57068" rx="1.78534" transform="rotate(-15 17.3612 47.5582)" fill="#14489D"/>
<circle cx="49.1278" cy="10.7608" r="1.16669" transform="rotate(-15 49.1278 10.7608)" fill="white"/>
<circle cx="52.1815" cy="9.94253" r="1.16669" transform="rotate(-15 52.1815 9.94253)" fill="white"/>
<circle cx="55.5126" cy="9.04995" r="1.16669" transform="rotate(-15 55.5126 9.04995)" fill="white"/>
</g>
<rect x="2.52826" y="18.1979" width="59.0817" height="46.1489" rx="4.4096" transform="rotate(-15 2.52826 18.1979)" stroke="#14489D" stroke-width="3.57068"/>
<defs>
<clipPath id="clip0_182_4538">
<rect x="0.341675" y="16.9354" width="62.6524" height="49.7196" rx="6.19494" transform="rotate(-15 0.341675 16.9354)" fill="white"/>
</clipPath>
</defs>
</svg>
