<svg width="78" height="58" viewBox="0 0 78 58" fill="none" xmlns="http://www.w3.org/2000/svg">
<path d="M62.3138 5.68628H45.0465V24.8111H62.3138V5.68628Z" fill="#F0F6FF"/>
<path d="M66.4696 10.4179C65.0042 7.80468 61.193 5.62346 58.5798 7.0889C55.9666 8.55433 55.541 13.1115 57.0064 15.7247L60.88 22.6321C62.3454 25.2453 69.4999 25.6321 72.1131 24.1667C74.7263 22.7012 71.8086 19.9385 70.3432 17.3253L66.4696 10.4179Z" fill="#F0F6FF"/>
<path d="M14.4441 47.3456C14.4441 49.3378 15.2355 51.2485 16.6443 52.6573C18.0531 54.0661 19.9638 54.8575 21.956 54.8575C23.9482 54.8575 25.8589 54.0661 27.2677 52.6573C28.6764 51.2485 29.4679 49.3378 29.4679 47.3456C29.4679 45.3533 28.6764 43.4426 27.2677 42.0339C25.8589 40.6252 23.9482 39.8337 21.956 39.8337C19.9638 39.8337 18.0531 40.6252 16.6443 42.0339C15.2355 43.4426 14.4441 45.3533 14.4441 47.3456ZM52.0034 47.3456C52.0034 49.3378 52.7948 51.2485 54.2037 52.6573C55.6124 54.0661 57.5231 54.8575 59.5153 54.8575C61.5076 54.8575 63.4183 54.0661 64.827 52.6573C66.2357 51.2485 67.0271 49.3378 67.0271 47.3456C67.0271 45.3533 66.2357 43.4426 64.827 42.0339C63.4183 40.6252 61.5076 39.8337 59.5153 39.8337C57.5231 39.8337 55.6124 40.6252 54.2037 42.0339C52.7948 43.4426 52.0034 45.3533 52.0034 47.3456Z" stroke="#14489D" stroke-width="3.57068" stroke-linecap="round" stroke-linejoin="round"/>
<path d="M14.4443 47.3458H11.3958C8.93076 47.3458 6.93245 45.3475 6.93245 42.8824V32.3219M3.17651 2.27454H40.0284C42.4934 2.27454 44.4917 4.27285 44.4917 6.73789V47.3458M29.468 47.3458H52.0036M67.0274 47.3458H70.0759C72.541 47.3458 74.5393 45.3475 74.5393 42.8824V24.8102M74.5393 24.8102H44.4917M74.5393 24.8102L64.5716 8.19744C63.765 6.85306 62.3122 6.03047 60.7443 6.03047H44.4917M6.93245 17.2982H21.9561" stroke="#14489D" stroke-width="3.57068" stroke-linecap="round" stroke-linejoin="round"/>
</svg>
