<svg width="66" height="58" viewBox="0 0 66 58" fill="none" xmlns="http://www.w3.org/2000/svg">
<g clip-path="url(#clip0_181_4525)">
<path d="M26.3829 39.4722L35.3591 42.4643C35.3591 42.4643 57.7995 37.9763 60.7916 37.9763C63.7837 37.9763 63.7837 40.9683 60.7916 43.9604C57.7995 46.9525 47.3273 55.9286 38.3512 55.9286C29.375 55.9286 23.3908 51.4405 17.4067 51.4405C11.4226 51.4405 2.44641 51.4405 2.44641 51.4405" stroke="#14489D" stroke-width="3.57068" stroke-linecap="round" stroke-linejoin="round"/>
<path d="M2.44641 33.4881C5.43848 30.496 11.4226 26.0079 17.4067 26.0079C23.3908 26.0079 37.6031 31.9921 39.8472 34.9842C42.0913 37.9761 35.3591 42.4643 35.3591 42.4643" stroke="#14489D" stroke-width="3.57068" stroke-linecap="round" stroke-linejoin="round"/>
<path d="M20.3988 17.0317V5.06348C20.3988 3.411 21.7383 2.07141 23.3909 2.07141H59.2956C60.9482 2.07141 62.2876 3.411 62.2876 5.06348V29" stroke="#14489D" stroke-width="3.57068" stroke-linecap="round" stroke-linejoin="round"/>
<path d="M48.8234 2.07141H33.8632V15.5357H48.8234V2.07141Z" fill="#F0F6FF" stroke="#14489D" stroke-width="3.57068" stroke-linecap="round" stroke-linejoin="round"/>
</g>
<defs>
<clipPath id="clip0_181_4525">
<rect width="65.25" height="58" fill="white" transform="translate(0.375)"/>
</clipPath>
</defs>
</svg>
