<svg width="48" height="58" viewBox="0 0 48 58" fill="none" xmlns="http://www.w3.org/2000/svg">
<g clip-path="url(#clip0_181_4500)">
<path d="M2.28174 38.5013L2.44484 53.3371C2.46121 54.8269 3.6803 56.0213 5.16772 56.0048L42.8733 55.5891C44.3607 55.5726 45.5533 54.3517 45.5369 52.8619L45.3739 38.0262" stroke="#14489D" stroke-width="3.57068" stroke-linecap="round" stroke-linejoin="round"/>
<path d="M42.4282 15.1279L4.72261 15.5436C3.23516 15.56 2.04263 16.7809 2.059 18.2707L2.14798 26.3629C2.16435 27.8527 3.38345 29.047 4.87086 29.0307L42.5764 28.6149C44.0639 28.5985 45.2564 27.3776 45.2401 25.8878L45.1511 17.7956C45.1347 16.3058 43.9157 15.1115 42.4282 15.1279Z" fill="#F0F6FF" stroke="#14489D" stroke-width="3.57068" stroke-linejoin="round"/>
<path d="M12.6543 1.96747L12.7137 7.3623" stroke="#14489D" stroke-width="3.57068" stroke-linecap="round" stroke-linejoin="round"/>
<path d="M23.4272 1.84869L23.4865 7.24352" stroke="#14489D" stroke-width="3.57068" stroke-linecap="round" stroke-linejoin="round"/>
<path d="M34.2004 1.72992L34.2598 7.12474" stroke="#14489D" stroke-width="3.57068" stroke-linecap="round" stroke-linejoin="round"/>
<path d="M13.0989 42.4286L34.6449 42.191" stroke="#14489D" stroke-width="3.57068" stroke-linecap="round" stroke-linejoin="round"/>
</g>
<defs>
<clipPath id="clip0_181_4500">
<rect width="47.4545" height="58" fill="white" transform="translate(0.272705)"/>
</clipPath>
</defs>
</svg>
