<svg width="59" height="63" viewBox="0 0 59 63" fill="none" xmlns="http://www.w3.org/2000/svg">
<path d="M45.2572 2L56.4955 12.5573H49.3439C47.0868 12.5573 45.2572 10.7276 45.2572 8.47057V2Z" fill="#F0F6FF"/>
<path d="M17.3315 17.325C17.3315 16.301 17.3315 10.7222 17.3315 6.0864C17.3315 3.82939 19.1612 2 21.4182 2L45.2572 2M56.4955 36.7368V12.5572M45.2572 2L56.4955 12.5572M45.2572 2V8.47057C45.2572 10.7276 47.0868 12.5572 49.3439 12.5572H56.4955" stroke="#14489D" stroke-width="3.57068" stroke-linecap="round"/>
<path d="M17.3315 24.8173V48.9968C17.3315 51.2538 19.1612 53.0834 21.4182 53.0834H52.4089C54.6659 53.0834 56.4955 51.2538 56.4955 48.9968V45.5912" stroke="#14489D" stroke-width="3.57068" stroke-linecap="round"/>
<path d="M23.1331 45.2485H32.5203" stroke="#F0F6FF" stroke-width="2.72445" stroke-linecap="round" stroke-linejoin="round"/>
<rect width="39.164" height="51.0835" transform="translate(2.34692 9.83276)" fill="white"/>
<path d="M30.2726 9.83276L41.5109 21.0711H34.3592C32.1022 21.0711 30.2726 19.2415 30.2726 16.9845V9.83276Z" fill="#F0F6FF"/>
<path d="M2.34692 25.1578C2.34692 24.1338 2.34692 18.555 2.34692 13.9192C2.34692 11.6622 4.17659 9.83276 6.4336 9.83276L30.2726 9.83276M41.5109 44.5695V21.0711M30.2726 9.83276L41.5109 21.0711M30.2726 9.83276V16.9845C30.2726 19.2415 32.1022 21.0711 34.3592 21.0711H41.5109" stroke="#14489D" stroke-width="3.57068" stroke-linecap="round"/>
<path d="M2.34692 42.1857V56.8296C2.34692 59.0866 4.17659 60.9163 6.4336 60.9163H37.4242C39.6812 60.9163 41.5109 59.0866 41.5109 56.8296V53.424" stroke="#14489D" stroke-width="3.57068" stroke-linecap="round"/>
<path d="M8.47681 41.5045H32.6563" stroke="#14489D" stroke-width="3.57068" stroke-linecap="round" stroke-linejoin="round"/>
<path d="M8.47681 47.9751H18.0124" stroke="#14489D" stroke-width="3.57068" stroke-linecap="round" stroke-linejoin="round"/>
</svg>
